<?xml version="1.0" encoding="UTF-8"?><svg xmlns="http://www.w3.org/2000/svg" height="768" stroke-width="10.0" viewBox="0 0 10240 7680" width="1024"><g id="main-container" stroke="none"><g fill-opacity="1" font-family="averta,arial,'arial bold'" font-weight="bold" id="background-container" stroke="none"><g fill="rgb(255,255,255)" fill-opacity="0" stroke="rgb(255,255,255)" stroke-opacity="0"><rect height="7680" stroke="none" width="10240" x="0" y="0"/></g><svg height="7680" viewBox="0 0 10240 7680" width="10240" x="0px" xmlns="http://www.w3.org/2000/svg" y="0px"><defs><filter filterUnits="objectBoundingBox" id="ISM_Shadow"><feGaussianBlur in="SourceAlpha" result="blur" stdDeviation="5"/><feOffset dx="0" dy="0" in="blur" result="offsetBlurredAlpha"/><feColorMatrix in="offsetBlurredAlpha" result="colorMatrix" values="1 0 0 0 0  0 1 0 0 0  0 0 1 0 0  0 0 0 0.5 0"/><feMerge><feMergeNode in="colorMatrix"/><feMergeNode in="SourceGraphic"/></feMerge></filter></defs><path d="M10031.8,2195.49L237.776,2195.49L237.776,5484.46L10031.9,5484.46L10031.8,2195.49Z" fill="#f6f6f6" fill-opacity="1.0" id="POCHE" stroke="#d4d4d4" stroke-opacity="1.0" stroke-width="2.66667"/><path d="M1046.81,3126.72C713.476,3126.72,714.292,3126.72,380.959,3126.72C380.959,3602.27,380.959,4077.83,380.959,4553.39C714.292,4553.39,713.476,4553.39,1046.81,4553.39L1046.81,4553.39C1046.81,4077.83,1046.81,3602.27,1046.81,3126.72Z" fill="#262626" fill-opacity="1.0" id="STAGE BASE"/><text fill="#ffffff" fill-opacity="1.0" font-size="313.733" id="STAGE TEXT" text-align="left" transform="rotate(-90.0,554.738,4361.52)" x="554.738" y="4641.46"><tspan text-anchor="start" x="554.738">STAGE</tspan></text><path d="M5802.67,3648.29L5246.53,3648.29L5246.53,4032.29L5802.67,4032.29L5802.67,3648.29Z" fill="#dfdfdf" fill-opacity="1.0" id="MIX BASE"/><text fill="#727272" fill-opacity="1.0" font-size="168.933" id="MIX TEXT" text-align="left" x="5376.56" y="3900.13"><tspan text-anchor="start" x="5376.56">MIX</tspan></text><path d="M5172.02,5341.4L1887.31,5341.4L1887.31,4732.05L5172.03,4732.05L5172.02,5341.4Z" fill="#ffffff" fill-opacity="1.0" id="A" stroke="#dddddd" stroke-opacity="1.0" stroke-width="10.0"/><path d="M5171.82,4732.05L1211.23,4732.05L1211.22,4137.38L5171.82,4137.39L5171.82,4732.05Z" fill="#ffffff" fill-opacity="1.0" id="B" stroke="#dddddd" stroke-opacity="1.0" stroke-width="10.0"/><path d="M5171.61,4137.39L1211.22,4137.39L1211.22,3542.72L5171.61,3542.72L5171.61,4137.39Z" fill="#ffffff" fill-opacity="1.0" id="C" stroke="#dddddd" stroke-opacity="1.0" stroke-width="10.0"/><path d="M5171.41,2948.05L1211.23,2948.05L1211.23,3542.72L5171.41,3542.72L5171.41,2948.05Z" fill="#ffffff" fill-opacity="1.0" id="D" stroke="#dddddd" stroke-opacity="1.0" stroke-width="10.0"/><path d="M5171.61,2948.05L1211.22,2948.05L1211.22,2350.74L5171.61,2350.74L5171.61,2948.05Z" fill="#ffffff" fill-opacity="1.0" id="E" stroke="#dddddd" stroke-opacity="1.0" stroke-width="10.0"/><path d="M9883.59,5341.4L8376.96,5341.4L8376.96,2350.53L9883.59,2350.53L9883.59,5341.4Z" fill="#ffffff" fill-opacity="1.0" id="GA" stroke="#dddddd" stroke-opacity="1.0" stroke-width="10.0"/><path d="M8376.76,4743.91C7764.9,4743.91,6380.23,4743.91,5768.36,4743.91C5768.36,4943.14,5768.36,5142.37,5768.36,5341.6C6380.23,5341.6,7764.9,5341.6,8376.76,5341.6L8376.76,5341.6C8376.76,5142.37,8376.76,4943.14,8376.76,4743.91Z" fill="#ffffff" fill-opacity="1.0" id="F" stroke="#dddddd" stroke-opacity="1.0" stroke-width="10.0"/><path d="M8376.55,2350.53C7764.69,2350.53,6380.23,2350.53,5768.36,2350.53C5768.36,2549.76,5768.36,2748.99,5768.36,2948.22C6380.23,2948.22,7764.69,2948.22,8376.55,2948.22L8376.55,2948.22C8376.55,2748.99,8376.55,2549.76,8376.55,2350.53Z" fill="#ffffff" fill-opacity="1.0" id="J" stroke="#dddddd" stroke-opacity="1.0" stroke-width="10.0"/></svg></g><g id="section-map-outline-container"><g fill="rgb(114,114,114)" stroke="rgb(193,193,193)"><path d="M5171.4102 2948.05 L1211.23 2948.05 L1211.23 3542.72 L5171.4102 3542.72 L5171.4102 2948.05 Z" fill-rule="evenodd" stroke="none"/><path d="M5171.4102 2948.05 L1211.23 2948.05 L1211.23 3542.72 L5171.4102 3542.72 L5171.4102 2948.05 Z" fill="rgb(114,114,114)" fill-rule="evenodd" stroke="white"/><path d="M5171.8198 4732.0498 L1211.23 4732.0498 L1211.22 4137.3799 L5171.8198 4137.3901 L5171.8198 4732.0498 Z" fill-rule="evenodd" stroke="none"/><path d="M5171.8198 4732.0498 L1211.23 4732.0498 L1211.22 4137.3799 L5171.8198 4137.3901 L5171.8198 4732.0498 Z" fill="rgb(114,114,114)" fill-rule="evenodd" stroke="white"/><path d="M9883.5898 5341.3999 L8376.96 5341.3999 L8376.96 2350.53 L9883.5898 2350.53 L9883.5898 5341.3999 Z" fill-rule="evenodd" stroke="none"/><path d="M9883.5898 5341.3999 L8376.96 5341.3999 L8376.96 2350.53 L9883.5898 2350.53 L9883.5898 5341.3999 Z" fill="rgb(114,114,114)" fill-rule="evenodd" stroke="white"/><path d="M5171.6099 4137.3901 L1211.23 4137.3901 L1211.23 3542.72 L5171.6099 3542.72 L5171.6099 4137.3901 Z" fill-rule="evenodd" stroke="none"/><path d="M5171.6099 4137.3901 L1211.23 4137.3901 L1211.23 3542.72 L5171.6099 3542.72 L5171.6099 4137.3901 Z" fill="rgb(114,114,114)" fill-rule="evenodd" stroke="white"/><path d="M5171.6099 2948.05 L1211.22 2948.05 L1211.22 2350.74 L5171.6099 2350.74 L5171.6099 2948.05 Z" fill-rule="evenodd" stroke="none"/><path d="M5171.6099 2948.05 L1211.22 2948.05 L1211.22 2350.74 L5171.6099 2350.74 L5171.6099 2948.05 Z" fill="rgb(114,114,114)" fill-rule="evenodd" stroke="white"/><path d="M5172.02 5341.3999 L1887.3101 5341.3999 L1887.3101 4732.0498 L5172.0298 4732.0498 L5172.02 5341.3999 Z" fill-rule="evenodd" stroke="none"/><path d="M5172.02 5341.3999 L1887.3101 5341.3999 L1887.3101 4732.0498 L5172.0298 4732.0498 L5172.02 5341.3999 Z" fill="rgb(114,114,114)" fill-rule="evenodd" stroke="white"/><path d="M8376.5498 2350.53 C7764.6899 2350.53 6380.23 2350.53 5768.3599 2350.53 C5768.3599 2549.76 5768.3599 2748.99 5768.3599 2948.22 C6380.23 2948.22 7764.6899 2948.22 8376.5498 2948.22 L8376.5498 2948.22 C8376.5498 2748.99 8376.5498 2549.76 8376.5498 2350.53 Z" fill-rule="evenodd" stroke="none"/><path d="M8376.5498 2350.53 C7764.6899 2350.53 6380.23 2350.53 5768.3599 2350.53 C5768.3599 2549.76 5768.3599 2748.99 5768.3599 2948.22 C6380.23 2948.22 7764.6899 2948.22 8376.5498 2948.22 L8376.5498 2948.22 C8376.5498 2748.99 8376.5498 2549.76 8376.5498 2350.53 Z" fill="rgb(114,114,114)" fill-rule="evenodd" stroke="white"/><path d="M8376.7598 4743.9102 C7764.8999 4743.9102 6380.23 4743.9102 5768.3599 4743.9102 C5768.3599 4943.1401 5768.3599 5142.3701 5768.3599 5341.6001 C6380.23 5341.6001 7764.8999 5341.6001 8376.7598 5341.6001 L8376.7598 5341.6001 C8376.7598 5142.3701 8376.7598 4943.1401 8376.7598 4743.9102 Z" fill-rule="evenodd" stroke="none"/><path d="M8376.7598 4743.9102 C7764.8999 4743.9102 6380.23 4743.9102 5768.3599 4743.9102 C5768.3599 4943.1401 5768.3599 5142.3701 5768.3599 5341.6001 C6380.23 5341.6001 7764.8999 5341.6001 8376.7598 5341.6001 L8376.7598 5341.6001 C8376.7598 5142.3701 8376.7598 4943.1401 8376.7598 4743.9102 Z" fill="rgb(114,114,114)" fill-rule="evenodd" stroke="white"/><path d="M5171.4102 2948.05 L1211.23 2948.05 L1211.23 3542.72 L5171.4102 3542.72 L5171.4102 2948.05 Z" fill="rgb(114,114,114)" fill-rule="evenodd" stroke="none"/><path d="M5171.4102 2948.05 L1211.23 2948.05 L1211.23 3542.72 L5171.4102 3542.72 L5171.4102 2948.05 Z" fill="rgb(114,114,114)" fill-rule="evenodd" stroke="white"/><path d="M5171.8198 4732.0498 L1211.23 4732.0498 L1211.22 4137.3799 L5171.8198 4137.3901 L5171.8198 4732.0498 Z" fill="rgb(114,114,114)" fill-rule="evenodd" stroke="none"/><path d="M5171.8198 4732.0498 L1211.23 4732.0498 L1211.22 4137.3799 L5171.8198 4137.3901 L5171.8198 4732.0498 Z" fill="rgb(114,114,114)" fill-rule="evenodd" stroke="white"/><path d="M9883.5898 5341.3999 L8376.96 5341.3999 L8376.96 2350.53 L9883.5898 2350.53 L9883.5898 5341.3999 Z" fill="rgb(114,114,114)" fill-rule="evenodd" stroke="none"/><path d="M9883.5898 5341.3999 L8376.96 5341.3999 L8376.96 2350.53 L9883.5898 2350.53 L9883.5898 5341.3999 Z" fill="rgb(114,114,114)" fill-rule="evenodd" stroke="white"/><path d="M5171.6099 4137.3901 L1211.23 4137.3901 L1211.23 3542.72 L5171.6099 3542.72 L5171.6099 4137.3901 Z" fill="rgb(114,114,114)" fill-rule="evenodd" stroke="none"/><path d="M5171.6099 4137.3901 L1211.23 4137.3901 L1211.23 3542.72 L5171.6099 3542.72 L5171.6099 4137.3901 Z" fill="rgb(114,114,114)" fill-rule="evenodd" stroke="white"/><path d="M5171.6099 2948.05 L1211.22 2948.05 L1211.22 2350.74 L5171.6099 2350.74 L5171.6099 2948.05 Z" fill="rgb(114,114,114)" fill-rule="evenodd" stroke="none"/><path d="M5171.6099 2948.05 L1211.22 2948.05 L1211.22 2350.74 L5171.6099 2350.74 L5171.6099 2948.05 Z" fill="rgb(114,114,114)" fill-rule="evenodd" stroke="white"/><path d="M5172.02 5341.3999 L1887.3101 5341.3999 L1887.3101 4732.0498 L5172.0298 4732.0498 L5172.02 5341.3999 Z" fill="rgb(114,114,114)" fill-rule="evenodd" stroke="none"/><path d="M5172.02 5341.3999 L1887.3101 5341.3999 L1887.3101 4732.0498 L5172.0298 4732.0498 L5172.02 5341.3999 Z" fill="rgb(114,114,114)" fill-rule="evenodd" stroke="white"/><path d="M8376.5498 2350.53 C7764.6899 2350.53 6380.23 2350.53 5768.3599 2350.53 C5768.3599 2549.76 5768.3599 2748.99 5768.3599 2948.22 C6380.23 2948.22 7764.6899 2948.22 8376.5498 2948.22 L8376.5498 2948.22 C8376.5498 2748.99 8376.5498 2549.76 8376.5498 2350.53 Z" fill="rgb(114,114,114)" fill-rule="evenodd" stroke="none"/><path d="M8376.5498 2350.53 C7764.6899 2350.53 6380.23 2350.53 5768.3599 2350.53 C5768.3599 2549.76 5768.3599 2748.99 5768.3599 2948.22 C6380.23 2948.22 7764.6899 2948.22 8376.5498 2948.22 L8376.5498 2948.22 C8376.5498 2748.99 8376.5498 2549.76 8376.5498 2350.53 Z" fill="rgb(114,114,114)" fill-rule="evenodd" stroke="white"/><path d="M8376.7598 4743.9102 C7764.8999 4743.9102 6380.23 4743.9102 5768.3599 4743.9102 C5768.3599 4943.1401 5768.3599 5142.3701 5768.3599 5341.6001 C6380.23 5341.6001 7764.8999 5341.6001 8376.7598 5341.6001 L8376.7598 5341.6001 C8376.7598 5142.3701 8376.7598 4943.1401 8376.7598 4743.9102 Z" fill="rgb(114,114,114)" fill-rule="evenodd" stroke="none"/><path d="M8376.7598 4743.9102 C7764.8999 4743.9102 6380.23 4743.9102 5768.3599 4743.9102 C5768.3599 4943.1401 5768.3599 5142.3701 5768.3599 5341.6001 C6380.23 5341.6001 7764.8999 5341.6001 8376.7598 5341.6001 L8376.7598 5341.6001 C8376.7598 5142.3701 8376.7598 4943.1401 8376.7598 4743.9102 Z" fill="rgb(114,114,114)" fill-rule="evenodd" stroke="white"/></g></g><g font-family="averta,arial,'arial bold'" id="labels-container"><g fill="white" font-size="241px" stroke="white"><text fill="rgb(255,255,255)" stroke="none" x="3070" xml:space="preserve" y="3315">D </text></g><g fill="white" font-size="241px" stroke="white"><text fill="rgb(255,255,255)" stroke="none" x="3070" xml:space="preserve" y="4504">B </text></g><g fill="white" font-size="217px" stroke="white" transform="matrix(0,1,-1,0,11763,-6423)"><text fill="rgb(255,255,255)" stroke="none" x="9093" xml:space="preserve" y="2670">GENERAL ADMISSION</text></g><g fill="white" font-size="241px" stroke="white"><text fill="rgb(255,255,255)" stroke="none" x="3070" xml:space="preserve" y="3910">C </text></g><g fill="white" font-size="241px" stroke="white"><text fill="rgb(255,255,255)" stroke="none" x="3077" xml:space="preserve" y="2719">E </text></g><g fill="white" font-size="241px" stroke="white"><text fill="rgb(255,255,255)" stroke="none" x="3408" xml:space="preserve" y="5106">A </text></g><g fill="white" font-size="241px" stroke="white"><text fill="rgb(255,255,255)" stroke="none" x="7004" xml:space="preserve" y="2717">J</text></g><g fill="white" font-size="241px" stroke="white"><text fill="rgb(255,255,255)" stroke="none" x="6998" xml:space="preserve" y="5112">F</text></g><g fill="white" font-size="241px" stroke="white"><text fill="rgb(255,255,255)" stroke="none" x="3070" xml:space="preserve" y="3315">D </text></g><g fill="white" font-size="241px" stroke="white"><text fill="rgb(255,255,255)" stroke="none" x="3070" xml:space="preserve" y="4504">B </text></g><g fill="white" font-size="217px" stroke="white" transform="matrix(0,1,-1,0,11763,-6423)"><text fill="rgb(255,255,255)" stroke="none" x="9093" xml:space="preserve" y="2670">GENERAL ADMISSION</text></g><g fill="white" font-size="241px" stroke="white"><text fill="rgb(255,255,255)" stroke="none" x="3070" xml:space="preserve" y="3910">C </text></g><g fill="white" font-size="241px" stroke="white"><text fill="rgb(255,255,255)" stroke="none" x="3077" xml:space="preserve" y="2719">E </text></g><g fill="white" font-size="241px" stroke="white"><text fill="rgb(255,255,255)" stroke="none" x="3408" xml:space="preserve" y="5106">A </text></g><g fill="white" font-size="241px" stroke="white"><text fill="rgb(255,255,255)" stroke="none" x="7004" xml:space="preserve" y="2717">J</text></g><g fill="white" font-size="241px" stroke="white"><text fill="rgb(255,255,255)" stroke="none" x="6998" xml:space="preserve" y="5112">F</text></g></g></g></svg>